<svg aria-hidden="true" style="position: absolute; width: 0; height: 0; overflow: hidden;" version="1.1" xmlns="http://www.w3.org/2000/svg" xmlns:xlink="http://www.w3.org/1999/xlink">
<defs>
<symbol id="btn-arrow" viewBox="0 0 32 32">
<path  d="M29.938 0h-24.181c-1.138 0-2.063 0.925-2.063 2.063s0.925 2.063 2.063 2.063h19.194l-24.344 24.35c-0.806 0.806-0.806 2.112 0 2.919s2.112 0.806 2.919 0l24.344-24.35v19.194c0 1.138 0.925 2.063 2.062 2.063s2.063-0.925 2.063-2.063v-24.175c0.006-1.137-0.919-2.063-2.056-2.063z"></path>
</symbol>
<symbol id="search" viewBox="0 0 32 32">
<path d="M31.696 30.259l-8.262-8.13c2.164-2.351 3.493-5.459 3.493-8.88-0.001-7.318-6.028-13.249-13.464-13.249s-13.463 5.931-13.463 13.249c0 7.318 6.027 13.249 13.463 13.249 3.213 0 6.159-1.111 8.474-2.959l8.294 8.162c0.404 0.398 1.060 0.398 1.464 0s0.405-1.044 0.001-1.442zM13.463 24.46c-6.291 0-11.392-5.019-11.392-11.211s5.1-11.211 11.392-11.211c6.292 0 11.392 5.019 11.392 11.211s-5.1 11.211-11.392 11.211z"></path>
</symbol>
<symbol id="star" viewBox="0 0 32 32">
<path fill="#5646cc" style="fill: var(--color1, #5646cc)" d="M31.917 12.275c-0.21-0.648-0.784-1.108-1.464-1.169l-9.236-0.839-3.652-8.548c-0.269-0.626-0.883-1.032-1.564-1.032s-1.295 0.406-1.564 1.033l-3.652 8.547-9.238 0.839c-0.679 0.063-1.252 0.521-1.463 1.169s-0.016 1.359 0.497 1.807l6.981 6.123-2.059 9.068c-0.151 0.667 0.108 1.356 0.661 1.756 0.297 0.215 0.645 0.324 0.996 0.324 0.303 0 0.603-0.081 0.872-0.243l7.967-4.762 7.964 4.762c0.583 0.351 1.317 0.319 1.869-0.081 0.554-0.401 0.812-1.091 0.661-1.756l-2.059-9.068 6.981-6.121c0.513-0.449 0.71-1.159 0.499-1.808z"></path>
</symbol>
<symbol id="dropdown" viewBox="0 0 32 32">
<path d="M16 25.12c-0.574 0-1.147-0.219-1.584-0.656l-13.759-13.759c-0.875-0.875-0.875-2.294 0-3.169s2.294-0.875 3.169 0l12.174 12.175 12.174-12.175c0.875-0.875 2.294-0.875 3.169 0s0.876 2.294 0 3.169l-13.759 13.759c-0.437 0.437-1.011 0.656-1.584 0.656z"></path>
</symbol>
</defs>
</svg>
