<svg aria-hidden="true" style="position:absolute;width:0;height:0;overflow:hidden" xmlns="http://www.w3.org/2000/svg"><defs><symbol id="btn-arrow" viewBox="0 0 32 32"><path d="M29.938 0H5.757C4.619 0 3.694.925 3.694 2.063s.925 2.063 2.063 2.063h19.194L.607 28.476a2.064 2.064 0 0 0 2.919 2.919L27.87 7.045v19.194c0 1.138.925 2.063 2.062 2.063s2.063-.925 2.063-2.063V2.064A2.056 2.056 0 0 0 29.939.001z"/></symbol><symbol id="search" viewBox="0 0 32 32"><path d="m31.696 30.259-8.262-8.13c2.164-2.351 3.493-5.459 3.493-8.88C26.926 5.931 20.899 0 13.463 0S0 5.931 0 13.249c0 7.318 6.027 13.249 13.463 13.249 3.213 0 6.159-1.111 8.474-2.959l8.294 8.162c.404.398 1.06.398 1.464 0s.405-1.044.001-1.442zM13.463 24.46c-6.291 0-11.392-5.019-11.392-11.211s5.1-11.211 11.392-11.211 11.392 5.019 11.392 11.211-5.1 11.211-11.392 11.211z"/></symbol><symbol id="star" viewBox="0 0 32 32"><path fill="#5646cc" style="fill:var(--color1, #5646cc)" d="M31.917 12.275a1.697 1.697 0 0 0-1.464-1.169l-9.236-.839-3.652-8.548a1.702 1.702 0 0 0-3.128.001l-3.652 8.547-9.238.839a1.7 1.7 0 0 0-.966 2.976l6.981 6.123-2.059 9.068a1.7 1.7 0 0 0 2.529 1.837l7.967-4.762 7.964 4.762a1.7 1.7 0 0 0 2.53-1.837l-2.059-9.068 6.981-6.121c.513-.449.71-1.159.499-1.808z"/></symbol><symbol id="dropdown" viewBox="0 0 32 32"><path d="M16 25.12a2.233 2.233 0 0 1-1.584-.656L.657 10.705a2.241 2.241 0 0 1 3.169-3.169L16 19.711 28.174 7.536a2.241 2.241 0 0 1 3.169 3.169L17.584 24.464A2.235 2.235 0 0 1 16 25.12z"/></symbol></defs></svg>